<svg version="1.2" xmlns="http://www.w3.org/2000/svg" viewBox="0 0 27 25" width="1080" height="1000">
	<title>home-icon-svg</title>
	<style>
		.s0 { fill: #ffffff } 
	</style>
	<path id="Instagram-Home-Icon-n3fd2" class="s0" d="m13.7 0q0.2 0.1 0.4 0.1 0.1 0.1 0.3 0.2 0.1 0.1 0.2 0.2l11.3 11.3q0.2 0.3 0.4 0.5 0.1 0.3 0.3 0.5 0.1 0.3 0.1 0.6 0.1 0.3 0.1 0.6v9.1q0 0.4-0.1 0.7-0.2 0.4-0.4 0.6-0.3 0.3-0.6 0.4-0.4 0.2-0.8 0.2h-7.2q-0.4 0-0.7-0.2-0.4-0.1-0.6-0.4-0.3-0.2-0.4-0.6-0.2-0.3-0.2-0.7v-5.5c0-0.6-0.2-1.2-0.7-1.7-0.4-0.5-1.1-0.7-1.7-0.7-0.6 0-1.3 0.2-1.7 0.7-0.5 0.5-0.7 1.1-0.7 1.7v5.5q0 0.4-0.2 0.7-0.1 0.4-0.4 0.6-0.2 0.3-0.6 0.4-0.3 0.2-0.7 0.2h-7.3q-0.3 0-0.7-0.2-0.3-0.1-0.6-0.4-0.2-0.2-0.4-0.6-0.1-0.3-0.1-0.7v-9.1q0-0.3 0.1-0.6 0-0.3 0.1-0.6 0.1-0.2 0.3-0.5 0.2-0.3 0.4-0.5l11.3-11.3q0.1-0.1 0.2-0.2 0.2-0.1 0.3-0.2 0.2 0 0.4-0.1 0.1 0 0.3 0 0.2 0 0.3 0z"/>
</svg>