<svg version="1.2" xmlns="http://www.w3.org/2000/svg" viewBox="0 0 50 50" width="300" height="300">
	<title>icons8-menu-rounded-50</title>
	<style>
		.s0 { fill: #ffffff;stroke: #ffffff;paint-order:stroke fill markers;stroke-linejoin: round;stroke-width: 2 } 
	</style>
	<path id="Forma 1" class="s0" d="m5.2 12.6c-0.9 0-1.5-0.6-1.5-1.5v-2c0-0.8 0.6-1.5 1.5-1.5h39.8c0.8 0 1.5 0.7 1.5 1.5v2c0 0.9-0.7 1.5-1.5 1.5zm0.5 14.9c-0.8 0-1.5-0.7-1.5-1.5v-2c0-0.8 0.7-1.5 1.5-1.5h39.3c0.9 0 1.5 0.7 1.5 1.5v2c0 0.8-0.6 1.5-1.5 1.5zm-0.3 14.6c-0.8 0-1.5-0.6-1.5-1.5v-2c0-0.8 0.7-1.5 1.5-1.5h39.3c0.9 0 1.5 0.7 1.5 1.5v2c0 0.9-0.6 1.5-1.5 1.5z"/>
</svg>