<svg version="1.2" xmlns="http://www.w3.org/2000/svg" viewBox="0 0 20 20" width="20" height="20">
	<title>menu-post-icon-svg</title>
	<style>
		.s0 { fill: none } 
		.s1 { fill: #ffffff } 
	</style>
	<path id="Layer" class="s0" d="m0 0h20v20h-20z"/>
	<g id="Layer">
		<path id="Layer" fill-rule="evenodd" class="s1" d="m5 10c0 1.1-0.9 2-2 2-1.1 0-2-0.9-2-2 0-1.1 0.9-2 2-2 1.1 0 2 0.9 2 2zm14 0c0 1.1-0.9 2-2 2-1.1 0-2-0.9-2-2 0-1.1 0.9-2 2-2 1.1 0 2 0.9 2 2zm-7 0c0 1.1-0.9 2-2 2-1.1 0-2-0.9-2-2 0-1.1 0.9-2 2-2 1.1 0 2 0.9 2 2z"/>
	</g>
</svg>