<svg version="1.2" xmlns="http://www.w3.org/2000/svg" viewBox="0 0 1200 1200" width="1200" height="1200">
	<title>profile-icon-svg</title>
	<style>
		.s0 { fill: #ffffff } 
	</style>
	<g id="Layer">
		<path id="Forma 1" fill-rule="evenodd" class="s0" d="m969.1 638.1l-368.6 380.7-369.3-381.3q-118.8-127.4-118.8-241.8 0-55.2 13.6-97.4 13.7-42.2 35-67.1 21.3-24.8 51.8-40.5 30.5-15.6 59.7-21.1 29.3-5.4 62.3-5.4 33.1 0 71.2 17.3 38.1 17.4 70.2 43.6 32.1 26.2 55 49 22.9 22.9 38.2 41.9 11.4 15 31.1 15 19.7 0 31.1-15 15.3-19 38.2-41.9 22.9-22.8 55-49 32.1-26.2 70.2-43.6 38.1-17.3 71.2-17.3 33 0 62.3 5.4 29.2 5.5 59.7 21.1 30.5 15.7 51.8 40.5 21.3 24.9 35 67.1 13.6 42.2 13.6 97.4 0 114.4-119.5 242.4zm120.2-476.7q-80.7-84.4-223.1-84.4-39.4 0-80.4 14.6-41 14.7-76.3 39.5-35.3 24.9-60.7 46.7-25.4 21.8-48.3 46.3-22.9-24.5-48.3-46.3-25.4-21.8-60.7-46.7-35.3-24.8-76.3-39.5-41-14.6-80.4-14.6-142.4 0-223.1 84.4-80.7 84.5-80.7 234.3 0 45.6 14.9 94 15 48.3 34 82.4 19.1 34 43.3 66.4 24.1 32.3 35.2 44.6 11.2 12.2 17.5 17.7l396.6 409.9q11.5 12.3 28 12.3 16.5 0 28-12.3l395.9-408.6q145.6-155.9 145.6-306.4 0-149.8-80.7-234.3z"/>
	</g>
</svg>