<svg version="1.2" xmlns="http://www.w3.org/2000/svg" viewBox="0 0 123 123" width="123" height="123">
	<title>reels-icon-svg</title>
	<style>
		.s0 { fill: #ffffff } 
	</style>
	<g id="Layer">
		<path id="Layer" fill-rule="evenodd" class="s0" d="m35.1 0h51.9c9.7 0 18.4 4 24.8 10.3 6.4 6.4 10.3 15.2 10.3 24.8v52.6c0 9.7-3.9 18.5-10.3 24.8v0.1c-6.4 6.3-15.2 10.3-24.8 10.3h-51.9c-9.6 0-18.4-4-24.8-10.3l-0.2-0.3c-6.2-6.4-10.1-15-10.1-24.6v-52.6c0-9.6 3.9-18.4 10.3-24.8 6.4-6.4 15.2-10.3 24.8-10.3zm56.4 31l0.1 0.1h21.6c-0.9-5.7-3.6-10.7-7.5-14.7-4.8-4.8-11.4-7.7-18.7-7.7h-8.9zm-10 0.1l-13.4-22.5h-29.5l13.6 22.5zm-52.6-21.8c-4.8 1.2-9.1 3.7-12.5 7.1-3.9 3.9-6.6 9-7.5 14.7h33.2zm-20.3 30.4v47.9c0 7.2 2.9 13.7 7.6 18.5l0.2 0.2c4.8 4.8 11.4 7.8 18.7 7.8h51.8c7.3 0 13.9-3 18.7-7.8 4.8-4.8 7.8-11.4 7.8-18.7v-47.9zm42.3 15.1l26.8 17.5q0.7 0.4 1.2 1.1c1.2 1.7 0.7 4.2-1 5.4l-26.8 15.8c-0.6 0.5-1.5 0.8-2.4 0.8-2.2 0-3.9-1.7-3.9-3.9v-33.5c0-0.7 0.2-1.5 0.7-2.2 1.2-1.8 3.6-2.2 5.4-1z"/>
	</g>
</svg>